<svg width="107" height="30" viewBox="0 0 107 30" fill="none" xmlns="http://www.w3.org/2000/svg">
<path d="M1.06 29V6.32H0.3L0.86 0.999998H12.3L11.98 6.32H6.5V12.32H11.42L11.1 17.64H6.5V23.68H12.3L11.98 29H1.06ZM19.9337 17.68L20.2537 12.36H26.9738V23.44C26.9738 25.4667 26.5204 26.9333 25.6137 27.84C24.7338 28.72 23.2671 29.16 21.2138 29.16H19.0537C17.0004 29.16 15.5204 28.72 14.6137 27.84C13.7337 26.9333 13.2937 25.4667 13.2937 23.44V6.56C13.2937 4.50667 13.7337 3.04 14.6137 2.16C15.5204 1.28 17.0004 0.839998 19.0537 0.839998H21.2138C23.2671 0.839998 24.7338 1.28 25.6137 2.16C26.5204 3.04 26.9738 4.50667 26.9738 6.56V10.52L21.5338 9.92V6.36C21.5338 6.22667 21.4671 6.16 21.3338 6.16H18.9338C18.8004 6.16 18.7337 6.22667 18.7337 6.36V23.64C18.7337 23.7733 18.8004 23.84 18.9338 23.84H21.3338C21.4671 23.84 21.5338 23.7733 21.5338 23.64V17.68H19.9337ZM32.4519 29V18.24L27.7719 0.999998H33.1719L35.1719 10.48L37.1319 0.999998H42.5319L37.8519 18.24V29H32.4519Z" fill="#FA8232"/>
<path d="M55.3666 20.2V23.8C55.3666 23.9333 55.4332 24 55.5666 24H56.7266C56.8599 24 56.9266 23.9333 56.9266 23.8L56.9666 18.48L52.4466 16.52C51.4332 16.0667 50.7532 15.6 50.4066 15.12C50.0866 14.64 49.9266 13.9067 49.9266 12.92V6.4C49.9266 4.34667 50.3666 2.88 51.2466 2C52.1266 1.12 53.5532 0.68 55.5266 0.68H57.2066C59.0732 0.759999 60.4066 1.25333 61.2066 2.16C62.0066 3.04 62.4066 4.45333 62.4066 6.4V11.4L56.9666 10.8V6.2C56.9666 6.06666 56.8999 6 56.7666 6H55.5666C55.4332 6 55.3666 6.06666 55.3666 6.2V12.08L59.8866 14.04C60.8999 14.4667 61.5666 14.9333 61.8866 15.44C62.2332 15.92 62.4066 16.6533 62.4066 17.64V23.6C62.4066 25.5467 62.0066 26.9733 61.2066 27.88C60.4066 28.76 59.0732 29.24 57.2066 29.32H55.6066C53.5799 29.32 52.1266 28.88 51.2466 28C50.3666 27.0933 49.9266 25.6267 49.9266 23.6V20.2H55.3666ZM63.9584 29V6.32H63.1984L63.7584 0.999998H69.3984V13.16H71.5984V0.999998H77.0384V29H71.5984V18.48H69.3984V29H63.9584ZM91.6988 23.44C91.6988 25.4667 91.2454 26.9333 90.3388 27.84C89.4588 28.72 87.9921 29.16 85.9388 29.16H84.1788C82.1254 29.16 80.6454 28.72 79.7388 27.84C78.8588 26.9333 78.4188 25.4667 78.4188 23.44V6.56C78.4188 4.50667 78.8588 3.04 79.7388 2.16C80.6454 1.28 82.1254 0.839998 84.1788 0.839998H85.9388C87.9921 0.839998 89.4588 1.28 90.3388 2.16C91.2454 3.04 91.6988 4.50667 91.6988 6.56V23.44ZM84.0588 6.16C83.9254 6.16 83.8588 6.22667 83.8588 6.36V23.64C83.8588 23.7733 83.9254 23.84 84.0588 23.84H86.0588C86.1921 23.84 86.2588 23.7733 86.2588 23.64V6.36C86.2588 6.22667 86.1921 6.16 86.0588 6.16H84.0588ZM93.4616 29V6.32H92.7016L93.2616 0.999998H100.582C102.635 0.999998 104.102 1.45333 104.982 2.36C105.888 3.24 106.342 4.69333 106.342 6.72V15.84C106.342 17.8667 105.888 19.3333 104.982 20.24C104.102 21.12 102.635 21.56 100.582 21.56H98.9016V29H93.4616ZM100.702 6.32H98.9016V16.24H100.702C100.835 16.24 100.902 16.1733 100.902 16.04V6.52C100.902 6.38667 100.835 6.32 100.702 6.32Z" fill="white"/>
</svg>
